<svg width="446" height="66" viewBox="0 0 446 66" fill="none" xmlns="http://www.w3.org/2000/svg">
<path fill-rule="evenodd" clip-rule="evenodd" d="M17.863 41.5933C17.6484 41.3854 17.1928 40.9168 16.4962 40.1876C15.7996 39.4578 15.344 38.9898 15.13 38.7814C14.5943 38.7808 14.3261 39.25 14.3261 40.1876C14.5406 40.187 15.13 40.4219 16.0943 40.8911C17.0591 41.3597 17.6485 41.5939 17.8631 41.5933H17.863ZM128.954 37.3751V36.906C128.954 35.4482 128.311 34.719 127.025 34.719C126.382 34.7184 126.061 34.8754 126.061 35.1881C126.061 35.604 126.435 36.0731 127.186 36.5944C127.936 37.1139 128.525 37.3757 128.954 37.3751ZM180.883 36.7501H180.4C179.864 36.7501 179.061 37.0893 177.989 37.7657C176.917 38.4423 176.381 38.9377 176.381 39.25L176.864 39.4057C177.292 39.5106 177.667 39.5627 177.989 39.5627C179.811 39.5615 180.775 38.8857 180.883 37.5315V36.7501ZM181.204 19.7195C181.311 18.5721 181.311 17.8441 181.204 17.5313C180.775 17.7386 180.293 18.2611 179.757 19.0945C179.971 19.1976 180.454 19.4067 181.204 19.7195ZM184.741 20.1881C184.42 19.1456 183.723 18.469 182.651 18.1563C182.33 18.9897 182.276 19.5625 182.49 19.8754C182.812 20.0833 183.562 20.1881 184.741 20.1881ZM219.949 41.1248C219.842 41.02 219.494 40.6562 218.904 40.0319C218.314 39.4058 217.967 38.99 217.859 38.7815C217.324 38.7808 217.055 39.2501 217.055 40.1877C217.163 40.1871 217.646 40.3441 218.502 40.6563C219.359 40.968 219.842 41.1254 219.949 41.1249L219.949 41.1248ZM22.686 50.6566C22.2569 52.3235 21.2391 53.5728 19.6312 54.4063C16.6306 55.7599 12.5042 58.156 7.25214 61.5935C7.78787 60.2393 8.64612 59.0937 9.82482 58.156C13.1473 55.8647 17.4345 53.365 22.686 50.6566ZM18.6669 20.9688C18.6669 21.8022 18.2915 22.7927 17.5412 23.9384L17.22 23.9371C17.4346 22.7927 17.1664 22.2193 16.4161 22.2193C15.5585 22.2181 15.0764 23.6777 14.9691 26.5939C14.9691 28.3645 14.9691 30.1878 14.9691 32.0626L14.6473 32.0614C14.6473 31.1248 14.2188 29.9798 13.3619 28.625C12.5044 27.2702 11.5931 26.5938 10.6283 26.5938C10.6283 27.74 9.93163 28.3129 8.53827 28.3129C7.14491 28.3116 6.44828 27.4794 6.44828 25.8125C6.44828 24.3547 7.30581 23.6255 9.02096 23.6255C11.5931 23.6243 13.3618 25.0312 14.3261 27.8437C14.3261 25.9689 14.3261 24.1456 14.3261 22.375C14.5406 20.0831 15.344 18.9376 16.7372 18.9376C18.0239 18.937 18.6669 19.6152 18.6669 20.9688ZM89.0837 31.4372C88.7619 32.7925 88.0652 33.9897 86.9938 35.0311C86.9938 35.0311 86.7792 35.0311 86.3507 35.0311C86.0289 34.9263 85.6534 34.8754 85.2249 34.8754C81.688 34.8754 77.8298 35.9695 73.6498 38.1565C69.4693 40.3441 66.4687 41.4382 64.6468 41.4382C62.7171 41.4376 61.0026 40.6048 59.502 38.9378C53.0717 43.7295 44.819 46.125 34.7433 46.125C28.527 46.125 23.9721 45.5 21.0782 44.2508C20.8643 44.2502 20.5154 44.7188 20.0332 45.6565C19.551 46.5936 19.1491 47.0627 18.8273 47.0627C18.3988 47.0615 17.5413 46.6984 16.2552 45.9692C14.6472 45.2394 13.683 44.8757 13.3618 44.8757C12.2897 47.2696 10.6818 49.0419 8.53817 50.1876C5.64422 51.7491 2.96483 52.5316 0.5 52.5316V51.9061C6.82364 49.1983 10.6282 46.3858 11.9148 43.4695C11.9148 38.3645 13.1473 35.8131 15.6121 35.8131C15.5049 35.8119 16.3624 36.3596 18.1843 37.4537C20.0061 38.5472 22.0431 39.4586 24.294 40.1878C27.6164 41.2297 31.2606 41.7505 35.2261 41.7505C39.62 41.7505 44.2291 41.1777 49.0521 40.032C54.9473 38.5724 59.0731 36.646 61.4312 34.2505C61.5384 34.2499 61.6994 34.4068 61.9139 34.7191C61.806 35.0312 61.6993 35.4489 61.5921 35.9696C62.5569 36.9061 63.7357 37.3758 65.129 37.3758C66.9509 37.3752 70.3269 36.021 75.2572 33.3127C71.9347 32.1665 69.6838 31.5943 68.505 31.5943C68.0765 31.5931 67.8089 31.7506 67.701 32.0629L63.1999 31.9059V31.5932C63.1999 28.677 64.9681 27.2191 68.505 27.2191C69.5771 27.2184 71.2381 27.6882 73.489 28.6253C76.2751 29.771 77.9372 30.3959 78.4729 30.5008C80.7238 31.1251 84.2608 31.4379 89.0837 31.4373V31.4372ZM63.1999 48.7806C63.1999 49.822 62.8251 51.0731 62.0741 52.5316C61.0027 52.5316 59.8239 52.2188 58.5372 51.5938C58.2161 51.8018 57.7333 52.5837 57.0903 53.9378C54.4109 53.208 53.0718 52.3236 53.0718 51.2816C53.0718 50.9682 53.4467 50.0833 54.1964 48.6254C55.3758 48.6248 56.6088 48.9375 57.8943 49.5625C58.2161 49.0412 58.8591 48.2083 59.824 47.0626L63.2 48.7805L63.1999 48.7806ZM42.7821 30.0309C43.3178 30.7595 43.586 31.5942 43.586 32.5319C43.586 34.8232 42.7285 35.9694 41.0139 35.9694C39.1915 35.9688 38.2802 35.031 38.2802 33.1568C38.2802 31.8009 38.7093 30.3442 39.5668 28.7816C40.3171 27.5311 41.1211 26.2817 41.978 25.0312L42.2998 25.0306C41.121 28.9883 40.531 31.0207 40.531 31.1255C40.531 32.1664 40.9058 32.6877 41.6567 32.6877C42.621 32.6871 42.9428 31.9591 42.621 30.5007L42.7819 30.0309H42.7821ZM41.1741 7.37515C40.853 11.6461 37.0478 14.7187 29.7593 16.5942L29.1163 16.4372C31.689 15.5007 34.3148 13.6774 36.9942 10.969C36.9942 10.0319 36.0299 9.56276 34.1002 9.56276C32.2784 9.56215 30.5633 10.0319 28.956 10.969C30.0275 8.46865 30.9381 6.93287 31.6891 6.36004C32.4394 5.786 33.7254 5.50019 35.5472 5.50019C37.9055 5.50019 39.7809 6.12518 41.1741 7.37505V7.37515ZM82.0098 46.4378C81.7952 46.9584 81.072 47.5834 79.8397 48.3126C78.6067 49.0412 77.4007 49.4067 76.222 49.4067C74.936 49.4061 74.2929 48.886 74.2929 47.844C74.2929 47.0094 74.8287 46.0734 75.9002 45.0314L77.3471 43.7803C76.9186 43.4693 76.4366 43.3123 75.9002 43.3123C75.2572 43.3123 74.6148 43.3651 73.9717 43.4693C74.5069 42.114 75.5254 41.4381 77.026 41.4381C77.669 41.4375 78.4193 41.6988 79.2769 42.2188C79.0623 42.6359 78.6333 43.2087 77.9902 43.9379C76.5975 45.4994 75.9002 46.4378 75.9002 46.7499C75.9002 47.4791 76.3829 47.844 77.3471 47.844C78.4192 47.844 79.9729 47.3754 82.0098 46.4378ZM79.9198 8.00004C79.9198 9.14509 79.2768 10.6826 77.9901 12.6096C76.7041 14.5371 75.204 15.9176 73.489 16.7506C75.4181 14.2496 76.3829 12.4274 76.3829 11.2818C55.6975 15.448 38.12 21.7502 23.6509 30.1879C24.1866 28.1039 24.7224 26.9068 25.2582 26.594C30.8315 22.948 39.4591 19.1461 51.142 15.1878C62.2887 11.5418 71.881 9.1463 79.9198 8.00004ZM150.337 29.7181C149.265 30.4473 147.925 31.2813 146.317 32.219C143.852 31.6978 142.03 31.4377 140.851 31.4377C137.1 31.4371 133.991 32.0627 131.527 33.3125C131.527 38.9371 130.562 41.7502 128.633 41.7502C127.132 41.7502 125.364 41.0732 123.327 39.719C122.898 41.0726 122.175 42.1408 121.157 42.9222C120.138 43.7024 118.933 44.0936 117.54 44.0936C117.54 49.4059 114.485 53.7297 108.376 57.0623C103.659 59.6664 97.39 61.7504 89.5658 63.3124C82.4919 64.7696 75.7397 65.5 69.3089 65.5C48.7308 65.4994 34.2074 59.927 25.7408 48.7809L25.901 48.1554C37.155 56.4889 51.9458 60.6562 70.2736 60.6562C81.956 60.6556 92.5132 59.0414 101.945 55.8124C111.056 52.7901 115.61 49.5623 115.61 46.1247C115.61 45.1864 115.262 44.2241 114.565 43.2342C113.869 42.245 113.521 41.5936 113.521 41.2809C113.521 40.7596 113.949 39.6146 114.806 37.8434C116.521 39.1976 117.647 39.8747 118.183 39.8747C120.219 39.8741 121.773 38.8854 122.845 36.9063C124.453 34.0931 125.256 32.6875 125.256 32.6875C127.721 30.6041 131.579 29.1984 136.831 28.4686C133.402 27.1144 131.097 26.4374 129.918 26.4374C129.597 26.4374 129.383 26.6459 129.275 27.0629L124.131 27.0623V26.2815C124.131 23.1562 126.06 21.5935 129.918 21.5935C131.526 21.5929 133.724 22.3748 136.51 23.938C140.798 26.1245 145.405 28.0521 150.336 29.7178L150.337 29.7181ZM97.9259 33.1562C97.9259 35.7596 97.1219 38.1564 95.5147 40.344C93.9063 42.531 93.1029 43.7294 93.1029 43.9379C93.1029 47.1664 92.2459 50.1874 90.5308 53C88.4938 56.2284 85.8681 57.8438 82.6529 57.8438C79.7589 57.8426 77.026 57.4273 74.4532 56.5939L74.775 56.1248C77.0259 56.1248 79.1689 55.8647 81.2058 55.3434C83.2422 54.8222 85.5196 53.3649 88.0381 50.9688C90.5572 48.5727 91.8162 46.5421 91.8162 44.8757C91.8162 43.9374 91.3346 43.0003 90.3692 42.0626C89.405 41.1248 88.9223 40.6563 88.9223 40.6563C88.9223 40.1344 89.2441 38.8857 89.8878 36.9066C90.852 37.531 91.9241 37.8437 93.1029 37.8437C94.6035 37.8425 95.6214 37.2709 96.1572 36.1252C95.836 33.52 95.032 29.4587 93.746 23.9384C92.5672 19.1456 91.8699 16.5427 91.656 16.1251C90.4772 13.4168 89.8878 11.7505 89.8878 11.1255C89.8878 10.2926 90.3163 9.04269 91.1738 7.37576C92.1381 8.4166 93.5314 10.1356 95.3532 12.5317C95.2465 12.8434 95.032 13.3651 94.7101 14.0944C94.389 14.823 94.228 15.3443 94.228 15.6572C94.228 15.5517 94.8445 18.1048 96.0769 23.313C97.3099 28.5217 97.9259 31.8022 97.9259 33.1564V33.1562ZM104.035 45.8122L100.98 48.7805L97.9259 45.6552L100.82 42.6868L104.035 45.8122ZM87.4759 19.7194C87.4759 22.426 86.672 23.7813 85.0641 23.7813C84.2066 23.7801 83.5099 23.5733 82.9742 23.1569C82.1171 24.4057 81.4199 25.0311 80.8842 25.0311C79.3842 25.0305 78.6333 24.1456 78.6333 22.3749C78.6333 21.7499 78.7411 21.1257 78.9551 20.5007L79.5981 20.1879C79.5981 21.4372 80.1345 22.0628 81.2061 22.0628C82.1703 22.0622 82.653 21.1257 82.653 19.2502L83.4569 18.4688C83.4569 19.8224 83.9391 20.5007 84.9039 20.5007C85.6535 20.5001 86.1363 19.5623 86.3508 17.6881L87.1541 17.0626C87.3687 17.8955 87.4759 18.7817 87.4759 19.7194ZM135.063 47.3754C134.742 49.0411 133.724 50.2922 132.009 51.1251C129.115 52.5835 124.989 54.979 119.63 58.3129C120.166 56.957 121.023 55.8126 122.202 54.8754C125.525 52.5835 129.812 50.0832 135.063 47.3754H135.063ZM106.607 35.8118C106.607 37.5835 106.232 39.6675 105.482 42.0625L98.7298 12.2195C98.7298 9.92706 99.1583 8.31278 100.016 7.37566C100.337 7.89572 101.516 12.5838 103.553 21.4379C105.589 30.2914 106.607 35.0837 106.607 35.8118H106.607ZM120.273 30.0308C120.273 32.2184 120.058 34.0423 119.63 35.5001L119.309 35.4995C119.309 30.7073 118.29 27.3231 116.253 25.344V21.2815C118.933 23.9893 120.273 26.9067 120.273 30.0308ZM146.478 45.3424C146.264 45.8631 145.541 46.4898 144.308 47.219C143.075 47.947 141.869 48.3125 140.69 48.3125C139.297 48.3119 138.6 47.7918 138.6 46.7498C138.6 45.9169 139.19 44.9792 140.369 43.9378L141.816 42.6867C141.387 42.374 140.905 42.2187 140.369 42.2187C139.619 42.2181 138.975 42.2709 138.44 42.3751C138.975 41.0198 139.994 40.3439 141.494 40.3439C142.137 40.3439 142.834 40.6046 143.584 41.1252C143.477 41.4374 143.048 42.0108 142.299 42.8443C141.012 44.4058 140.369 45.3436 140.369 45.6563C140.369 46.3849 140.798 46.7498 141.655 46.7498C142.834 46.7486 144.442 46.2818 146.478 45.3424L146.478 45.3424ZM111.913 10.3435C112.449 11.1769 112.716 12.0631 112.716 13.0003C112.716 15.1879 111.859 16.282 110.144 16.282C108.322 16.2814 107.411 15.3443 107.411 13.4694C107.411 12.1147 107.814 10.7347 108.617 9.3291C109.421 7.92225 110.252 6.5944 111.109 5.34452H111.431C110.252 9.30217 109.662 11.334 109.662 11.4382C109.662 12.4796 110.037 13.0003 110.787 13.0003C111.752 12.9991 112.074 12.2711 111.752 10.8133L111.913 10.3436L111.913 10.3435ZM167.057 52.3745C167.7 53.2079 168.021 54.0941 168.021 55.0313C168.021 57.322 167.164 58.4688 165.449 58.4688C163.52 58.4682 162.555 57.4795 162.555 55.5004C162.555 54.1445 162.984 52.7915 163.841 51.438C164.698 50.0827 165.502 48.7297 166.253 47.3755L166.574 47.5313C165.395 51.4889 164.806 53.5207 164.806 53.625C164.806 54.6663 165.18 55.1877 165.931 55.1877C166.896 55.1871 167.217 54.4063 166.896 52.8443L167.056 52.3746L167.057 52.3745ZM145.192 6.28105C145.192 7.42731 144.549 8.9642 143.263 10.8911C141.977 12.8181 140.53 14.2507 138.922 15.1878C140.744 12.5832 141.655 10.7083 141.655 9.56266C130.722 11.7497 119.469 16.0734 107.894 22.532C108.43 20.5517 108.965 19.3551 109.501 18.9376C119.147 12.5832 131.044 8.36494 145.192 6.28095L145.192 6.28105ZM159.822 33.1563C159.822 35.7597 159.045 38.1565 157.491 40.3441C155.937 42.5311 155.159 43.7295 155.159 43.938C155.159 47.2696 154.302 50.396 152.588 53.3128C150.658 56.7492 148.139 58.4688 145.031 58.4688C143.209 58.4682 140.369 57.8438 136.51 56.5939L136.672 56.1248C139.03 56.1248 141.28 55.8127 143.424 55.1877C145.246 54.7701 147.416 53.365 149.935 50.9688C152.453 48.5727 153.713 46.5421 153.713 44.8757C153.713 43.9374 153.231 43.0003 152.266 42.0626C151.301 41.1248 150.819 40.6563 150.819 40.6563C150.819 40.1344 151.194 38.8857 151.944 36.9066C152.802 37.531 153.82 37.8437 154.999 37.8437C156.606 37.8425 157.625 37.2709 158.053 36.1252C157.732 33.52 156.928 29.4587 155.642 23.9384C154.57 19.1456 153.927 16.5427 153.713 16.1251C152.427 13.4168 151.784 11.7505 151.784 11.1255C151.784 10.2926 152.212 9.04269 153.069 7.37576C154.035 8.4166 155.374 10.1356 157.089 12.5317C157.089 12.8434 156.955 13.3651 156.687 14.0944C156.419 14.823 156.285 15.3443 156.285 15.6572C156.285 15.5517 156.874 18.1048 158.053 23.313C159.232 28.5217 159.822 31.8022 159.822 33.1564L159.822 33.1563ZM187.796 48.9376C187.474 50.6045 186.456 51.8544 184.741 52.6879C181.847 54.0409 177.721 56.4376 172.362 59.8751C172.897 58.5203 173.755 57.3753 174.934 56.4376C178.257 54.1446 182.543 51.646 187.796 48.9376ZM150.98 18.1563C150.98 20.9689 150.176 22.3751 148.568 22.3751C147.711 22.3739 147.068 22.1144 146.639 21.5938C145.674 22.8436 144.924 23.4692 144.388 23.4692C142.995 23.4686 142.299 22.6358 142.299 20.9689C142.299 20.2403 142.405 19.6153 142.62 19.0946L143.102 18.7813C143.102 19.9275 143.638 20.5009 144.71 20.5009C145.781 20.5003 146.317 19.6153 146.317 17.8441L147.121 16.9069C147.121 18.3641 147.55 19.0945 148.407 19.0945C149.265 19.0939 149.8 18.1562 150.015 16.2819L150.658 15.6558C150.873 16.385 150.98 17.2191 150.98 18.1562L150.98 18.1563ZM168.504 35.8119C168.504 37.5836 168.182 39.6676 167.539 42.0626L160.626 12.2196C160.626 9.92716 161.108 8.31288 162.073 7.37576C162.394 7.89582 163.547 12.5839 165.529 21.438C167.512 30.2915 168.503 35.0838 168.503 35.8119H168.504ZM202.747 37.8425C202.747 42.8439 201.14 45.3437 197.924 45.3437C195.459 45.3424 193.744 44.3023 192.78 42.2189C192.029 45.6553 190.047 47.3755 186.831 47.3755C185.116 47.3755 183.777 46.6984 182.812 45.3437C181.847 43.9901 181.365 42.4795 181.365 40.8132C179.543 43.8331 177.721 45.3437 175.899 45.3437C173.755 45.3424 172.684 44.0422 172.684 41.4382C172.684 39.5616 174.05 37.8701 176.783 36.3595C179.516 34.8483 180.883 33.9897 180.883 33.7818C181.097 32.8434 181.204 32.0111 181.204 31.2814L182.651 29.2502C182.973 30.0836 183.133 31.0735 183.133 32.2191C183.133 32.8435 183.053 33.7554 182.893 34.9532C182.732 36.1505 182.652 37.063 182.652 37.688C182.652 40.7079 184.205 42.219 187.314 42.219C190.315 42.2184 191.815 40.8133 191.815 38.0008C191.815 37.0631 191.574 35.5783 191.091 33.5471C190.609 31.5153 190.368 30.0316 190.368 29.0945C190.368 28.052 190.85 26.5942 191.815 24.7193C192.565 27.7404 193.315 30.7608 194.066 33.782C195.137 37.8427 196.691 39.8751 198.728 39.8751C200.014 39.8745 200.657 39.407 200.657 38.4688C200.657 36.8013 200.014 34.3548 198.728 31.1257C197.442 27.8962 196.799 26.1256 196.799 25.8128C196.799 25.1867 197.013 24.355 197.442 23.313C197.87 22.271 198.085 21.4903 198.085 20.969C201.193 27.6355 202.747 33.2607 202.747 37.8426L202.747 37.8425ZM185.706 19.8753C185.277 21.8533 183.991 22.5836 181.847 22.0629C180.99 23.9371 179.248 25.474 176.622 26.6725C173.996 27.8691 171.398 28.4688 168.825 28.4688L168.504 28.1561C169.361 28.1561 171.29 27.4275 174.291 25.9696C177.721 24.4058 179.864 23.0528 180.722 21.9065C179.436 21.3858 178.793 20.7082 178.793 19.8753C178.793 19.3546 178.926 18.7555 179.195 18.0783C179.463 17.4018 179.543 16.9585 179.436 16.7506C179.221 16.6451 179.114 16.4378 179.114 16.1251C179.114 15.5007 179.811 15.1879 181.204 15.1879C182.061 15.1879 183.08 15.7349 184.259 16.8285C185.437 17.9226 185.92 18.9377 185.706 19.8754L185.706 19.8753ZM224.29 49.5619C223.969 51.2282 222.951 52.4271 221.236 53.1563C218.342 54.6141 214.215 57.0103 208.857 60.3441C209.5 59.0937 210.356 57.948 211.429 56.9067C214.752 54.6142 219.038 52.1666 224.29 49.5619H224.29ZM174.774 8.7814C175.416 9.61481 175.738 10.5005 175.738 11.4382C175.738 13.7289 174.88 14.8757 173.166 14.8757C171.343 14.8751 170.433 13.8858 170.433 11.9067C170.433 10.5525 170.834 9.17263 171.638 7.76638C172.442 6.35893 173.273 5.03168 174.13 3.78181L174.291 3.93818C173.219 7.89582 172.683 9.92766 172.683 10.0319C172.683 11.0732 173.005 11.594 173.648 11.594C174.72 11.594 175.094 10.8132 174.773 9.25062V8.7815L174.774 8.7814ZM197.12 17.218C197.12 20.0312 196.263 21.438 194.548 21.438C193.797 21.4374 193.154 21.1773 192.619 20.6566C191.654 21.9054 190.958 22.5321 190.529 22.5321C189.028 22.5321 188.278 21.6987 188.278 20.0318C188.278 19.302 188.385 18.6776 188.6 18.1563L189.243 17.8436C189.243 18.9898 189.778 19.5626 190.851 19.5626C191.815 19.5614 192.298 18.6777 192.298 16.907L193.101 15.9687C193.101 17.4277 193.584 18.1563 194.548 18.1563C195.299 18.1563 195.78 17.2192 195.995 15.3443L196.638 14.5623C196.959 15.3958 197.12 16.2819 197.12 17.218ZM209.821 35.8119C209.821 37.5836 209.5 39.6676 208.857 42.0626L201.943 12.2196C201.943 9.92716 202.426 8.31288 203.39 7.37576C203.712 7.89582 204.864 12.5839 206.847 21.438C208.829 30.2915 209.821 35.0838 209.821 35.8119H209.821ZM193.422 9.25001C193.422 11.5419 193.154 13.3652 192.619 14.7187L192.458 14.7181C192.458 9.92706 191.386 6.54224 189.243 4.56307L189.404 0.5C192.083 3.20827 193.422 6.12518 193.422 9.24991V9.25001ZM222.683 17.3749C222.683 18.1041 222.307 19.0425 221.557 20.1881H221.236C221.45 19.1456 221.183 18.6254 220.432 18.6254C219.574 18.6248 219.146 20.0317 219.146 22.8442C219.038 24.7185 218.985 26.5424 218.985 28.313L218.664 28.3117C218.664 27.4788 218.262 26.3859 217.458 25.0312C216.654 23.6771 215.716 23 214.644 23C214.644 24.042 213.947 24.5632 212.554 24.5632C211.268 24.5626 210.625 23.7813 210.625 22.2193C210.625 20.7609 211.482 20.0317 213.197 20.0317C215.662 20.0311 217.377 21.3864 218.342 24.0941C218.342 22.323 218.342 20.5523 218.342 18.7818C218.556 16.4894 219.36 15.3443 220.753 15.3443C222.039 15.3437 222.683 16.0214 222.683 17.3749ZM438.67 37.5953C437.279 38.3784 435.754 36.9586 434.897 36.1251C434.361 36.958 433.879 37.7921 433.45 38.6255C432.378 39.9785 431.146 40.6561 429.752 40.6561C428.573 40.6549 427.448 40.2924 426.376 39.5626C424.768 41.2295 422.839 42.0625 420.588 42.0625C418.659 42.0612 416.462 41.1775 413.997 39.4068C402.957 42.8438 388.542 45.7606 370.751 48.1561C350.493 50.8644 330.023 52.2186 309.337 52.2186C273.432 52.2174 244.922 49.7188 223.808 44.7186C223.594 44.7186 223.246 45.1098 222.763 45.8906C222.281 46.6713 221.879 47.0625 221.557 47.0625C221.128 47.0613 220.191 46.6982 218.744 45.969C217.297 45.2392 216.413 44.8755 216.091 44.8755C215.019 47.2694 213.358 49.0417 211.107 50.1874C208.321 51.7489 205.694 52.5314 203.23 52.5314V51.9059C209.553 49.1981 213.358 46.3856 214.644 43.4693C214.644 38.3643 215.823 35.8129 218.181 35.8129C218.824 35.8117 219.816 36.4114 221.155 37.6093C222.494 38.8071 223.647 39.5626 224.611 39.8748C244.011 44.3537 273.432 46.594 312.873 46.594C353.709 46.5934 389.399 42.2188 419.945 33.4689V34.4054C419.731 34.7182 419.249 35.2916 418.498 36.125C419.356 36.9579 420.481 37.3755 421.874 37.3755C423.697 37.3749 426.215 35.8128 429.43 32.6875C429.538 33.0518 429.645 33.4173 429.751 33.7816C429.751 33.8847 429.484 34.4581 428.947 35.5C429.484 36.0201 430.127 36.2814 430.877 36.2814C433.235 36.2802 433.594 34.4065 434.666 30.6562C435.019 30.4841 435.239 30.4255 435.668 30.3646C435.812 31.2033 435.921 32.2459 435.839 32.9013C438.303 32.6887 440.966 31.194 442.625 29.6091C441.131 27.087 437.89 24.0858 435.241 21.012C432.666 18.0213 433.797 15.8004 434.714 12.4536C436.021 12.7003 442.895 22.8195 445.5 30.2656C444.833 32.0151 444.165 33.7646 443.497 35.5135C441.887 36.5977 440.278 37.2923 438.669 37.5951L438.67 37.5953ZM416.89 45.4994C416.247 48.7296 415.23 50.3438 413.836 50.3438C413.3 50.3426 412.603 50.1359 411.746 49.7189C410.352 50.8645 409.388 51.438 408.852 51.438C408.638 51.4374 408.262 51.2553 407.727 50.891C407.191 50.5267 406.762 50.344 406.441 50.344C405.262 50.3427 402.635 51.4896 398.563 53.7814C394.061 56.2807 390.364 57.8439 387.471 58.4689L387.31 57.9998C390.095 57.27 393.901 55.3435 398.724 52.2188C402.797 49.5105 405.744 48.1563 407.566 48.1563C407.887 48.1557 408.289 48.3127 408.772 48.6255C409.254 48.9376 409.656 49.0941 409.977 49.0941C410.085 49.0935 410.942 48.5212 412.55 47.3756C412.657 47.3756 412.898 47.4798 413.273 47.6883C413.648 47.8951 413.997 48.0005 414.318 48.0005C414.747 47.9999 415.041 47.6619 415.202 46.9849C415.363 46.3072 415.926 45.8129 416.89 45.4995V45.4994ZM435.057 45.3424C434.736 47.0094 433.718 48.2083 432.003 48.9375C429.109 50.3947 424.982 52.7914 419.624 56.1253C420.16 54.8742 421.017 53.7298 422.196 52.6878C425.519 50.3948 429.805 47.9483 435.057 45.3424ZM443.9 42.8438L440.845 45.8122L437.63 42.6868L440.684 39.7185L443.9 42.8438ZM425.411 16.4372C425.09 20.7076 421.231 23.7814 413.836 25.6568L413.354 25.4993C415.926 24.5627 418.551 22.74 421.231 20.0317C421.231 19.0939 420.214 18.6254 418.177 18.6254C416.461 18.6248 414.801 19.0425 413.193 19.8753C414.265 17.4785 415.176 15.9955 415.926 15.4222C416.677 14.8482 417.963 14.5629 419.785 14.5629C422.035 14.5623 423.911 15.1879 425.411 16.4372H425.411Z" fill="#AD6371"/>
</svg>
